<svg width="175" height="38" viewBox="0 0 175 38" fill="none" xmlns="http://www.w3.org/2000/svg">
<path d="M44.3026 34.5828C44.3026 35.8658 43.2995 36.9258 42.0178 37.0001H33.7146C32.8415 36.9072 32.0799 36.3493 31.7456 35.5311C31.727 35.4753 31.7084 35.4196 31.6898 35.3638C31.6898 35.3452 31.6713 35.3266 31.6713 35.2894C30.3338 31.8121 28.2162 28.6882 25.4856 26.1406C25.4299 26.0848 25.3742 26.0291 25.3184 25.9919C24.5568 25.3782 23.5166 25.2667 22.6436 25.7129C23.1079 25.434 23.5723 25.1737 24.0553 24.9134C24.0553 24.9134 24.0553 24.9134 24.0739 24.9134C28.8849 22.4402 34.3833 21.622 39.7145 22.6076C39.7516 22.6076 39.7888 22.6262 39.8259 22.6262H39.8445C40.6804 22.7935 41.3491 23.4072 41.6277 24.2067L41.7206 24.5415L44.2097 33.839C44.2283 33.9134 44.2469 33.9877 44.2655 34.0807C44.284 34.2667 44.3026 34.4154 44.3026 34.5828Z" fill="url(#paint0_linear_2019_1411)"/>
<path d="M34.0675 1.05591C33.5845 1.24186 33.1759 1.55797 32.8973 1.98566L32.8787 2.00425C32.8415 2.07863 32.8044 2.13442 32.7672 2.2088L32.7486 2.22739L31.4112 4.55177L20.8789 22.8121L20.7489 23.0166L15.0462 32.8906L13.4858 35.6055C13.4858 35.6055 13.4858 35.6055 13.4858 35.6241L13.4301 35.7171C13.4115 35.7542 13.393 35.7914 13.3744 35.81L13.3187 35.903C12.8914 36.5352 12.2041 36.9257 11.4425 36.9629H2.41482C1.07738 36.9629 0 35.8844 0 34.5456C0 33.9505 0.222906 33.3555 0.631568 32.9092C0.650143 32.8906 0.650143 32.872 0.668719 32.872L0.743021 32.7976C0.761597 32.779 0.761596 32.7604 0.780172 32.7604L13.4673 20.06L14.2846 19.2419L31.7084 1.78111L31.9313 1.55797C32.3586 1.18607 32.8973 0.962931 33.4545 0.944336C33.4731 0.944336 33.4917 0.944336 33.5288 0.944336C33.7146 1.00012 33.8818 1.01872 34.0675 1.05591Z" fill="#006EF2"/>
<path d="M41.6089 24.2253C41.3302 23.4257 40.6615 22.8121 39.8256 22.6447H39.8071C39.7699 22.6447 39.7328 22.6261 39.6956 22.6261C34.3644 21.6406 28.8661 22.4402 24.055 24.9319C24.055 24.9319 24.055 24.9319 24.0364 24.9319C23.5535 25.1737 23.0891 25.4526 22.6247 25.7315C22.6247 25.7315 22.6061 25.7315 22.6061 25.7501L22.4018 25.8617L22.3832 25.8803C19.4854 27.684 16.9963 30.0828 15.0645 32.9092L20.7671 23.0352L20.8972 22.8307L31.4295 4.57035L32.7484 2.28316C32.7484 2.28316 32.7484 2.26457 32.7669 2.26457C32.7669 2.24597 32.7855 2.24597 32.7855 2.24597L32.9155 2.02283C33.1942 1.59514 33.6028 1.26043 34.0858 1.09308C34.9217 1.27903 35.609 1.91126 35.869 2.72944C35.8876 2.78523 35.9062 2.84101 35.9062 2.8782L36.5192 5.16539L41.2931 23.0166L41.6089 24.2253Z" fill="#559AFF"/>
<path d="M107.526 25.2501C108.492 18.5559 114.213 13.5724 120.975 13.5352C127.699 13.5352 132.083 18.5931 131.154 25.2501C130.188 31.9629 124.467 36.965 117.705 37.0022C110.981 36.9836 106.597 31.9443 107.526 25.2501ZM114.733 25.2501C114.269 27.2955 115.551 29.341 117.594 29.8245C117.947 29.8989 118.318 29.9361 118.69 29.9175C121.365 29.9175 123.631 27.9278 123.947 25.2501C124.411 23.186 123.129 21.1406 121.068 20.6757C120.715 20.6013 120.362 20.5641 119.99 20.5827C117.315 20.5827 115.068 22.591 114.733 25.2501ZM169.513 36.5931C169.03 36.5187 168.64 36.184 168.491 35.7191C168.472 35.6819 168.472 35.6447 168.454 35.6261L168.435 35.5889C167.766 33.5621 166.671 31.684 165.222 30.122C165.184 30.0848 165.166 30.0662 165.129 30.029C164.924 29.8245 164.627 29.6943 164.33 29.6943C164.126 29.6943 163.921 29.7501 163.754 29.8617C163.996 29.6943 164.237 29.527 164.497 29.3782C166.243 28.3183 168.249 27.7604 170.274 27.7604C168.231 27.7604 166.225 28.3183 164.479 29.3782C164.237 29.527 163.977 29.6943 163.736 29.8617H163.717L163.606 29.936H163.587C162.045 31.0517 160.764 32.4836 159.798 34.1385L158.98 35.7563L158.943 35.8121C158.943 35.8307 158.925 35.8493 158.906 35.8679L158.869 35.9237C158.664 36.277 158.312 36.5187 157.903 36.5559H153.203C152.46 36.5001 151.903 35.8493 151.959 35.1055C151.959 34.7522 152.07 34.4174 152.293 34.1385L152.312 34.1199L152.349 34.0641L152.367 34.0455L158.943 26.4774L159.37 25.9939L168.398 15.5621L168.51 15.4319C168.714 15.2088 168.992 15.0786 169.308 15.0786C169.327 15.0786 169.327 15.0786 169.345 15.0786C169.438 15.0786 169.531 15.0972 169.624 15.1158C170.088 15.246 170.441 15.6179 170.553 16.1013C170.571 16.1385 170.571 16.1571 170.571 16.1943L170.887 17.5518L173.358 28.2253L173.525 28.9691L173.581 29.1737L174.862 34.7336C174.881 34.7708 174.881 34.8265 174.899 34.8823C174.918 34.9753 174.918 35.0683 174.918 35.1798C174.955 35.9051 174.435 36.5187 173.729 36.6117H169.513V36.5931ZM168.324 17.1984L169.011 15.8224V15.8038L168.324 17.1984ZM169.085 15.6922C169.067 15.7294 169.048 15.7666 169.03 15.8038L169.085 15.6922C169.085 15.6737 169.085 15.6737 169.085 15.6922ZM144.547 36.5745C144.027 36.5931 143.544 36.2584 143.377 35.7563L143.117 35.0497C141.129 30.3265 139.123 29.5456 139.123 29.5456L138.343 35.1055C138.213 35.9051 137.544 36.5187 136.727 36.5559H132.38C131.711 36.5745 131.136 36.0352 131.117 35.3658C131.117 35.2728 131.117 35.1984 131.136 35.1055L133.922 15.3389C134.052 14.5394 134.739 13.9443 135.557 13.9071H143.6C149.804 13.9071 152.665 16.7894 151.94 22.0332C151.68 24.5993 150.175 26.8679 147.928 28.1137L150.956 35.2728C151.123 35.7935 150.826 36.3513 150.305 36.5187C150.213 36.5373 150.12 36.5559 150.027 36.5559L144.547 36.5745ZM139.94 23.7439H142.207C143.711 23.7439 144.491 23.186 144.659 22.0332C144.826 20.8431 144.194 20.2852 142.69 20.2852H140.405L139.94 23.7439ZM92.0526 36.5745C91.3839 36.5745 90.8267 36.0352 90.8267 35.3658C90.8267 35.2914 90.8267 35.1984 90.8452 35.1241L93.613 15.3389C93.743 14.5394 94.4117 13.9443 95.2291 13.9071H99.5757C100.244 13.8885 100.783 14.4092 100.802 15.0786C100.802 15.1716 100.802 15.246 100.783 15.3389L98.7584 29.8989H105.706C106.374 29.8803 106.913 30.4009 106.932 31.0703C106.932 31.1633 106.932 31.2377 106.913 31.3307L106.374 35.1241C106.263 35.9422 105.576 36.5559 104.758 36.5745H92.0526Z" fill="black"/>
<path d="M64.544 29.355C63.9868 33.4087 60.5689 36.9603 54.4575 36.9603C50.6495 36.9603 46.823 35.7331 45.9128 32.1442C45.7642 31.4748 46.1728 30.7868 46.8416 30.5822L50.9096 29.3921C51.374 29.2248 51.8941 29.4107 52.1356 29.8384C52.7857 30.7124 53.8445 31.1959 54.9405 31.1029C56.1851 31.1029 57.2253 30.5822 57.3367 29.7454C57.4853 28.6111 56.1293 28.5554 53.9374 27.9975C49.9808 26.9934 47.2131 25.543 47.8632 20.8756C48.4762 16.45 52.73 13.4934 57.6897 13.4934C61.1819 13.4934 64.1539 15.074 64.9341 18.1793C65.0827 18.8859 64.6369 19.574 63.9496 19.7413L59.9002 20.7083C59.4915 20.8384 59.0271 20.6525 58.8042 20.2806C58.377 19.6669 57.6339 19.3136 56.8909 19.3694C55.6092 19.3694 54.8662 19.9273 54.7547 20.6897C54.6061 21.7496 56.2594 21.8797 57.9126 22.3632C63.1509 23.9066 65.0827 25.5244 64.544 29.355Z" fill="url(#paint1_linear_2019_1411)"/>
<path d="M83.6028 36.5698H77.8815C77.3986 36.5698 76.9528 36.2909 76.7299 35.8632L72.9962 27.0863L71.8816 35.1194C71.7516 35.9376 71.0643 36.5512 70.247 36.5698H65.9189C65.2502 36.5884 64.6743 36.0492 64.6558 35.3797C64.6558 35.2868 64.6558 35.2124 64.6743 35.1194L67.4421 15.3529C67.5721 14.5533 68.2594 13.9583 69.0767 13.9211H73.4048C74.0736 13.9025 74.6494 14.4231 74.668 15.0925C74.668 15.1669 74.668 15.2599 74.6494 15.3343L73.5349 23.293L79.479 14.6463C79.7762 14.2 80.2778 13.9211 80.835 13.9025H86.3148C86.7421 13.9211 87.0578 14.2744 87.0578 14.7021C87.0578 14.888 86.9835 15.074 86.8535 15.2041L79.7205 24.9851L84.5687 35.2496C84.7545 35.7702 84.4758 36.3281 83.9743 36.514C83.8257 36.5512 83.7143 36.5698 83.6028 36.5698Z" fill="url(#paint2_linear_2019_1411)"/>
<defs>
<linearGradient id="paint0_linear_2019_1411" x1="31.5508" y1="20.1261" x2="32.932" y2="35.5811" gradientUnits="userSpaceOnUse">
<stop stop-color="#006EF2"/>
<stop offset="1" stop-color="#006EF2" stop-opacity="0.702"/>
</linearGradient>
<linearGradient id="paint1_linear_2019_1411" x1="60.1086" y1="12.333" x2="49.882" y2="34.3852" gradientUnits="userSpaceOnUse">
<stop stop-color="#7DB5F8"/>
<stop offset="1" stop-color="#006EF2"/>
</linearGradient>
<linearGradient id="paint2_linear_2019_1411" x1="83.3369" y1="14.6109" x2="69.0027" y2="35.3091" gradientUnits="userSpaceOnUse">
<stop stop-color="#7DB5F8"/>
<stop offset="1" stop-color="#006EF2"/>
</linearGradient>
</defs>
</svg>
